<?xml version="1.0" encoding="UTF-8"?>
<!DOCTYPE svg PUBLIC "-//W3C//DTD SVG 1.1//EN" "http://www.w3.org/Graphics/SVG/1.1/DTD/svg11.dtd">
<!-- Creator: CorelDRAW 2017 -->
<svg xmlns="http://www.w3.org/2000/svg" xml:space="preserve" width="512px" height="512px" version="1.1" style="shape-rendering:geometricPrecision; text-rendering:geometricPrecision; image-rendering:optimizeQuality; fill-rule:evenodd; clip-rule:evenodd"
viewBox="0 0 512 512"
 xmlns:xlink="http://www.w3.org/1999/xlink">
 <defs>
  <style type="text/css">
   <![CDATA[
    .fil0 {fill:none}
    .fil4 {fill:url(#id0)}
    .fil1 {fill:url(#id1)}
    .fil2 {fill:url(#id2)}
    .fil3 {fill:url(#id3)}
    .fil5 {fill:url(#id4)}
   ]]>
  </style>
  <linearGradient id="id0" gradientUnits="userSpaceOnUse" x1="155.49" y1="129.71" x2="201.48" y2="324.56">
   <stop offset="0" style="stop-opacity:0.898039; stop-color:#E47332"/>
   <stop offset="0.819608" style="stop-opacity:0.898039; stop-color:#E56D2F"/>
   <stop offset="1" style="stop-opacity:0.898039; stop-color:#E6672C"/>
  </linearGradient>
  <linearGradient id="id1" gradientUnits="userSpaceOnUse" x1="434.65" y1="158.02" x2="139.96" y2="359.62">
   <stop offset="0" style="stop-opacity:0.788235; stop-color:#EF7F1A"/>
   <stop offset="0.65098" style="stop-opacity:1; stop-color:#F7B512"/>
   <stop offset="1" style="stop-opacity:1; stop-color:#FFEB09"/>
  </linearGradient>
  <linearGradient id="id2" gradientUnits="userSpaceOnUse" x1="265.97" y1="471.11" x2="411.7" y2="446.69">
   <stop offset="0" style="stop-opacity:1; stop-color:#383535"/>
   <stop offset="0.341176" style="stop-opacity:1; stop-color:#676564"/>
   <stop offset="1" style="stop-opacity:1; stop-color:#969594"/>
  </linearGradient>
  <linearGradient id="id3" gradientUnits="userSpaceOnUse" x1="354.85" y1="460.84" x2="369.5" y2="347.15">
   <stop offset="0" style="stop-opacity:1; stop-color:#9D9E9E"/>
   <stop offset="1" style="stop-opacity:1; stop-color:#FEFEFE"/>
  </linearGradient>
  <radialGradient id="id4" gradientUnits="userSpaceOnUse" gradientTransform="matrix(0.513607 -0.135274 0.135274 0.513607 109 64)" cx="242.19" cy="64.41" r="287.14" fx="242.19" fy="64.41">
   <stop offset="0" style="stop-opacity:0.4; stop-color:#EB9C20"/>
   <stop offset="0.160784" style="stop-opacity:0.4; stop-color:#EABC1E"/>
   <stop offset="1" style="stop-opacity:0.658824; stop-color:#EADC1D"/>
  </radialGradient>
 </defs>
 <g id="Layer_x0020_1">
  <metadata id="CorelCorpID_0Corel-Layer"/>
  <path class="fil0" d="M262.59 58.02c10.88,-2.71 22.27,-4.15 33.99,-4.15 40.27,0 76.58,16.99 102.14,44.19 -31.29,-36.1 -77.49,-58.93 -129.01,-58.93 -61.61,0 -115.59,32.64 -145.6,81.57 24.96,-38.63 68.4,-64.19 117.81,-64.19 7.02,0 13.92,0.51 20.67,1.51z"/>
  <path class="fil0" d="M241.92 56.51c-49.41,0 -92.85,25.56 -117.81,64.19 24.96,-38.63 68.4,-64.19 117.81,-64.19zm20.67 1.51c-6.75,-1 -13.65,-1.51 -20.67,-1.51 7.02,0 13.92,0.51 20.67,1.51zm-99.48 93.07c14.73,-45.81 52.4,-81.34 99.48,-93.07 10.88,-2.71 22.27,-4.15 33.99,-4.15 40.27,0 76.58,16.99 102.14,44.19 -31.29,-36.1 -77.49,-58.93 -129.01,-58.93 -61.61,0 -115.59,32.64 -145.6,81.57 -6.35,10.35 -11.63,21.43 -15.68,33.08 -4.33,13.52 -6.68,27.93 -6.68,42.89 0,37.37 14.63,71.32 38.47,96.45 -6.4,-16.05 -9.92,-33.56 -9.92,-51.9 0,-34.32 12.33,-65.76 32.81,-90.13z"/>
  <path class="fil1" d="M140.22 293.12c16.56,41.52 52.39,73.26 96.45,84.17 -44.06,-10.91 -79.89,-42.65 -96.45,-84.17zm231.92 -148.38c-20.32,-21.41 -47.34,-36.41 -77.7,-41.64 48.57,11.21 84.78,54.73 84.78,106.71 0,13.44 -2.42,26.32 -6.86,38.23 -2.18,5.87 -4.86,11.5 -7.98,16.84 -18.62,33.37 -50.48,58.34 -88.48,67.8 -10.88,2.71 -22.26,4.15 -33.98,4.15 -40.04,0 -76.16,-16.79 -101.7,-43.71 -23.84,-25.13 -38.47,-59.08 -38.47,-96.45 0,-14.96 2.35,-29.37 6.68,-42.89 -6.09,17.55 -9.4,36.4 -9.4,56.03 0,82.96 59.19,152.09 137.64,167.48 10.69,2.1 21.73,3.2 33.04,3.2 14.13,0 27.87,-1.72 41.01,-4.96 44.15,-13.22 79.16,-47.61 93.23,-91.4 4.34,-13.52 6.69,-27.94 6.69,-42.91 0,-37.38 -14.64,-71.35 -38.5,-96.48z"/>
  <path class="fil2" d="M385.07 404.47c2.52,5.71 -0.03,11.29 0.68,17.82l-123.05 -1.85c1.59,-6.26 -0.52,-13.63 2.84,-19.02l119.53 3.05zm-6.87 39.5c-1.23,6.49 -7.38,9.1 -10.48,14.75l-89.91 -4.04c-6.47,-11.01 -3.76,-8.54 -9.79,-15.12l110.18 4.41z"/>
  <path class="fil3" d="M369.28 369.86c4.37,4.46 8.13,9.66 11.09,15.52l-117.67 35.06c-0.72,-6.42 -0.42,-12.85 0.82,-19.07l105.76 -31.51zm16.9 32.99c1.13,6.5 1.21,13.07 0.29,19.45l-108.66 32.38c-3.57,-4.08 -6.68,-8.69 -9.17,-13.8 -0.43,-0.88 -0.83,-1.76 -1.21,-2.65l118.75 -35.38zm-6.83 40.78c-5.99,10.88 -15.27,20.09 -27.29,25.96 -18.64,9.09 -39.58,8.05 -56.61,-0.97l83.9 -24.99z"/>
  <path class="fil4" d="M124.11 120.7c-6.35,10.35 -11.63,21.43 -15.68,33.08 4.05,-11.65 9.33,-22.73 15.68,-33.08zm117.81 -64.19c-49.41,0 -92.85,25.56 -117.81,64.19 24.96,-38.63 68.4,-64.19 117.81,-64.19zm20.67 1.51c-6.75,-1 -13.65,-1.51 -20.67,-1.51 7.02,0 13.92,0.51 20.67,1.51zm-132.29 183.2c0,-34.32 12.34,-65.76 32.81,-90.13 -20.48,24.37 -32.81,55.81 -32.81,90.13zm9.92 51.9c-6.4,-16.05 -9.92,-33.56 -9.92,-51.9 0,18.34 3.52,35.85 9.92,51.9zm16.2 -99.09c0,-14.98 2.34,-29.41 6.69,-42.94 14.73,-45.81 52.4,-81.34 99.48,-93.07 10.88,-2.71 22.27,-4.15 33.99,-4.15 40.27,0 76.58,16.99 102.14,44.19 -31.29,-36.1 -77.49,-58.93 -129.01,-58.93 -61.61,0 -115.59,32.64 -145.6,81.57 -6.59,10.19 -11.89,21.3 -15.68,33.08 -4.33,13.52 -6.68,27.93 -6.68,42.89 0,37.37 14.63,71.32 38.47,96.45 25.54,26.92 61.66,43.71 101.7,43.71 11.72,0 23.1,-1.44 33.98,-4.15 -67.6,-10 -119.48,-68.26 -119.48,-138.65z"/>
  <path class="fil5" d="M262.59 58.02c10.88,-2.71 22.27,-4.15 33.99,-4.15 40.27,0 76.58,16.99 102.14,44.19 -31.29,-36.1 -77.49,-58.93 -129.01,-58.93 -61.61,0 -115.59,32.64 -145.6,81.57 24.96,-38.63 68.4,-64.19 117.81,-64.19 7.02,0 13.92,0.51 20.67,1.51z"/>
 </g>
</svg>
