<?xml version="1.0" encoding="UTF-8"?>
<!DOCTYPE svg PUBLIC "-//W3C//DTD SVG 1.1//EN" "http://www.w3.org/Graphics/SVG/1.1/DTD/svg11.dtd">
<!-- Creator: CorelDRAW 2017 -->
<svg xmlns="http://www.w3.org/2000/svg" xml:space="preserve" width="192px" height="192px" version="1.1" style="shape-rendering:geometricPrecision; text-rendering:geometricPrecision; image-rendering:optimizeQuality; fill-rule:evenodd; clip-rule:evenodd"
viewBox="0 0 192 192"
 xmlns:xlink="http://www.w3.org/1999/xlink">
 <defs>
  <style type="text/css">
   <![CDATA[
    .fil0 {fill:none}
    .fil4 {fill:url(#id0)}
    .fil2 {fill:url(#id1)}
    .fil3 {fill:url(#id2)}
    .fil1 {fill:url(#id3)}
    .fil5 {fill:url(#id4)}
   ]]>
  </style>
  <linearGradient id="id0" gradientUnits="userSpaceOnUse" x1="57.44" y1="46.9" x2="74.15" y2="117.71">
   <stop offset="0" style="stop-opacity:0.898039; stop-color:#E47332"/>
   <stop offset="0.819608" style="stop-opacity:0.898039; stop-color:#E56D2F"/>
   <stop offset="1" style="stop-opacity:0.898039; stop-color:#E6672C"/>
  </linearGradient>
  <linearGradient id="id1" gradientUnits="userSpaceOnUse" x1="97.59" y1="170.97" x2="150.54" y2="162.09">
   <stop offset="0" style="stop-opacity:1; stop-color:#383535"/>
   <stop offset="0.341176" style="stop-opacity:1; stop-color:#676564"/>
   <stop offset="1" style="stop-opacity:1; stop-color:#969594"/>
  </linearGradient>
  <linearGradient id="id2" gradientUnits="userSpaceOnUse" x1="129.89" y1="167.23" x2="135.21" y2="125.92">
   <stop offset="0" style="stop-opacity:1; stop-color:#9D9E9E"/>
   <stop offset="1" style="stop-opacity:1; stop-color:#FEFEFE"/>
  </linearGradient>
  <linearGradient id="id3" gradientUnits="userSpaceOnUse" x1="158.89" y1="57.19" x2="51.8" y2="130.45">
   <stop offset="0" style="stop-opacity:0.788235; stop-color:#EF7F1A"/>
   <stop offset="0.65098" style="stop-opacity:1; stop-color:#F7B512"/>
   <stop offset="1" style="stop-opacity:1; stop-color:#FFEB09"/>
  </linearGradient>
  <radialGradient id="id4" gradientUnits="userSpaceOnUse" gradientTransform="matrix(0.513603 -0.135273 0.135273 0.513606 40 23)" cx="88.95" cy="23.17" r="287.15" fx="88.95" fy="23.17">
   <stop offset="0" style="stop-opacity:0.4; stop-color:#EB9C20"/>
   <stop offset="0.160784" style="stop-opacity:0.4; stop-color:#EABC1E"/>
   <stop offset="1" style="stop-opacity:0.658824; stop-color:#EADC1D"/>
  </radialGradient>
 </defs>
 <g id="Layer_x0020_1">
  <metadata id="CorelCorpID_0Corel-Layer"/>
  <path class="fil0" d="M96.36 20.85c3.95,-0.98 8.09,-1.51 12.35,-1.51 14.64,0 27.83,6.18 37.12,16.06 -11.37,-13.12 -28.16,-21.41 -46.88,-21.41 -22.39,0 -42.01,11.86 -52.91,29.64 9.07,-14.04 24.85,-23.33 42.81,-23.33 2.55,0 5.06,0.19 7.51,0.55z"/>
  <path class="fil0" d="M88.85 20.3c-17.96,0 -33.74,9.29 -42.81,23.33 9.07,-14.04 24.85,-23.33 42.81,-23.33zm7.51 0.55c-2.45,-0.36 -4.96,-0.55 -7.51,-0.55 2.55,0 5.06,0.19 7.51,0.55zm-36.15 33.82c5.35,-16.65 19.04,-29.56 36.15,-33.82 3.95,-0.98 8.09,-1.51 12.35,-1.51 14.64,0 27.83,6.18 37.12,16.06 -11.37,-13.12 -28.16,-21.41 -46.88,-21.41 -22.39,0 -42.01,11.86 -52.91,29.64 -2.31,3.76 -4.23,7.79 -5.7,12.02 -1.58,4.91 -2.43,10.15 -2.43,15.59 0,13.58 5.32,25.92 13.98,35.05 -2.33,-5.84 -3.6,-12.2 -3.6,-18.86 0,-12.48 4.48,-23.9 11.92,-32.76z"/>
  <path class="fil1" d="M51.89 106.29c6.02,15.08 19.04,26.62 35.05,30.58 -16.01,-3.96 -29.03,-15.5 -35.05,-30.58zm84.28 -53.93c-7.39,-7.78 -17.2,-13.23 -28.24,-15.13 17.65,4.08 30.81,19.89 30.81,38.78 0,4.89 -0.88,9.57 -2.49,13.89 -0.79,2.14 -1.77,4.18 -2.9,6.12 -6.77,12.13 -18.35,21.2 -32.15,24.64 -3.96,0.99 -8.09,1.51 -12.35,1.51 -14.55,0 -27.68,-6.1 -36.96,-15.88 -8.66,-9.13 -13.98,-21.47 -13.98,-35.05 0,-5.44 0.85,-10.68 2.43,-15.59 -2.21,6.38 -3.42,13.23 -3.42,20.36 0,30.15 21.51,55.27 50.02,60.86 3.88,0.77 7.9,1.16 12.01,1.16 5.13,0 10.12,-0.62 14.9,-1.8 16.04,-4.8 28.77,-17.3 33.88,-33.21 1.58,-4.92 2.43,-10.15 2.43,-15.59 0,-13.59 -5.32,-25.93 -13.99,-35.07z"/>
  <path class="fil2" d="M140.87 146.75c0.91,2.07 -0.01,4.1 0.24,6.48l-44.71 -0.68c0.58,-2.27 -0.19,-4.95 1.03,-6.91l43.44 1.11zm-2.5 14.35c-0.45,2.36 -2.68,3.31 -3.81,5.37l-32.67 -1.47c-2.35,-4 -1.37,-3.11 -3.56,-5.5l40.04 1.6z"/>
  <path class="fil3" d="M135.13 134.17c1.59,1.62 2.95,3.51 4.03,5.64l-42.76 12.74c-0.26,-2.33 -0.15,-4.67 0.3,-6.93l38.43 -11.45zm6.14 11.99c0.41,2.37 0.44,4.75 0.11,7.07l-39.49 11.77c-1.3,-1.49 -2.43,-3.16 -3.33,-5.02 -0.16,-0.32 -0.3,-0.64 -0.44,-0.96l43.15 -12.86zm-2.48 14.82c-2.18,3.95 -5.55,7.3 -9.92,9.43 -6.77,3.31 -14.38,2.93 -20.57,-0.35l30.49 -9.08z"/>
  <path class="fil4" d="M46.04 43.63c-2.31,3.76 -4.23,7.79 -5.7,12.02 1.47,-4.23 3.39,-8.26 5.7,-12.02zm42.81 -23.33c-17.96,0 -33.74,9.29 -42.81,23.33 9.07,-14.04 24.85,-23.33 42.81,-23.33zm7.51 0.55c-2.45,-0.36 -4.96,-0.55 -7.51,-0.55 2.55,0 5.06,0.19 7.51,0.55zm-48.07 66.58c0,-12.48 4.48,-23.9 11.92,-32.76 -7.44,8.86 -11.92,20.28 -11.92,32.76zm3.6 18.86c-2.33,-5.84 -3.6,-12.2 -3.6,-18.86 0,6.66 1.27,13.02 3.6,18.86zm5.89 -36.01c0,-5.44 0.85,-10.69 2.43,-15.61 5.35,-16.65 19.04,-29.56 36.15,-33.82 3.95,-0.98 8.09,-1.51 12.35,-1.51 14.64,0 27.83,6.18 37.12,16.06 -11.37,-13.12 -28.16,-21.41 -46.88,-21.41 -22.39,0 -42.01,11.86 -52.91,29.64 -2.4,3.7 -4.33,7.74 -5.7,12.02 -1.58,4.91 -2.43,10.15 -2.43,15.59 0,13.58 5.32,25.92 13.98,35.05 9.28,9.78 22.41,15.88 36.96,15.88 4.26,0 8.39,-0.52 12.35,-1.51 -24.57,-3.63 -43.42,-24.81 -43.42,-50.38z"/>
  <path class="fil5" d="M96.36 20.85c3.95,-0.98 8.09,-1.51 12.35,-1.51 14.64,0 27.83,6.18 37.12,16.06 -11.37,-13.12 -28.16,-21.41 -46.88,-21.41 -22.39,0 -42.01,11.86 -52.91,29.64 9.07,-14.04 24.85,-23.33 42.81,-23.33 2.55,0 5.06,0.19 7.51,0.55z"/>
 </g>
</svg>
