<?xml version="1.0" encoding="UTF-8"?>
<!DOCTYPE svg PUBLIC "-//W3C//DTD SVG 1.1//EN" "http://www.w3.org/Graphics/SVG/1.1/DTD/svg11.dtd">
<!-- Creator: CorelDRAW 2017 -->
<svg xmlns="http://www.w3.org/2000/svg" xml:space="preserve" width="2550px" height="3300px" version="1.1" style="shape-rendering:geometricPrecision; text-rendering:geometricPrecision; image-rendering:optimizeQuality; fill-rule:evenodd; clip-rule:evenodd"
viewBox="0 0 2550 3300"
 xmlns:xlink="http://www.w3.org/1999/xlink">
 <defs>
  <style type="text/css">
   <![CDATA[
    .fil0 {fill:none}
    .fil2 {fill:url(#id0)}
    .fil4 {fill:url(#id1)}
    .fil1 {fill:url(#id2)}
    .fil3 {fill:url(#id3)}
    .fil5 {fill:url(#id4)}
   ]]>
  </style>
  <linearGradient id="id0" gradientUnits="userSpaceOnUse" x1="1118.74" y1="2336.32" x2="1704.77" y2="2238.1">
   <stop offset="0" style="stop-opacity:1; stop-color:#383535"/>
   <stop offset="0.341176" style="stop-opacity:1; stop-color:#676564"/>
   <stop offset="1" style="stop-opacity:1; stop-color:#969594"/>
  </linearGradient>
  <linearGradient id="id1" gradientUnits="userSpaceOnUse" x1="674.4" y1="963.33" x2="859.35" y2="1746.93">
   <stop offset="0" style="stop-opacity:0.898039; stop-color:#E47332"/>
   <stop offset="0.819608" style="stop-opacity:0.898039; stop-color:#E56D2F"/>
   <stop offset="1" style="stop-opacity:0.898039; stop-color:#E6672C"/>
  </linearGradient>
  <linearGradient id="id2" gradientUnits="userSpaceOnUse" x1="1797.09" y1="1077.2" x2="611.97" y2="1887.96">
   <stop offset="0" style="stop-opacity:0.788235; stop-color:#EF7F1A"/>
   <stop offset="0.65098" style="stop-opacity:1; stop-color:#F7B512"/>
   <stop offset="1" style="stop-opacity:1; stop-color:#FFEB09"/>
  </linearGradient>
  <linearGradient id="id3" gradientUnits="userSpaceOnUse" x1="1476.17" y1="2294.99" x2="1535.08" y2="1837.79">
   <stop offset="0" style="stop-opacity:1; stop-color:#9D9E9E"/>
   <stop offset="1" style="stop-opacity:1; stop-color:#FEFEFE"/>
  </linearGradient>
  <radialGradient id="id4" gradientUnits="userSpaceOnUse" gradientTransform="matrix(0.513607 -0.135274 0.135274 0.513609 403 479)" cx="1023.1" cy="700.74" r="287.14" fx="1023.1" fy="700.74">
   <stop offset="0" style="stop-opacity:0.4; stop-color:#EB9C20"/>
   <stop offset="0.160784" style="stop-opacity:0.4; stop-color:#EABC1E"/>
   <stop offset="1" style="stop-opacity:0.658824; stop-color:#EADC1D"/>
  </radialGradient>
 </defs>
 <g id="Layer_x0020_1">
  <metadata id="CorelCorpID_0Corel-Layer"/>
  <path class="fil0" d="M1105.13 675.03c43.76,-10.9 89.54,-16.69 136.68,-16.69 161.96,0 307.97,68.32 410.79,177.7 -125.86,-145.17 -311.63,-236.99 -518.84,-236.99 -247.76,0 -464.86,131.26 -585.55,328.04 100.38,-155.34 275.07,-258.15 473.77,-258.15 28.25,0 56.02,2.08 83.15,6.09z"/>
  <path class="fil0" d="M1021.98 668.94c-198.7,0 -373.39,102.81 -473.77,258.15 100.38,-155.34 275.07,-258.15 473.77,-258.15zm83.15 6.09c-27.13,-4.01 -54.9,-6.09 -83.15,-6.09 28.25,0 56.02,2.08 83.15,6.09zm-400.05 374.3c59.23,-184.25 210.71,-327.14 400.05,-374.3 43.76,-10.9 89.54,-16.69 136.68,-16.69 161.96,0 307.98,68.32 410.79,177.7 -125.86,-145.17 -311.63,-236.99 -518.84,-236.99 -247.76,0 -464.86,131.26 -585.55,328.04 -25.53,41.63 -46.75,86.19 -63.03,133.07 -17.45,54.35 -26.87,112.3 -26.87,172.45 0,150.29 58.82,286.84 154.69,387.89 -25.74,-64.55 -39.89,-134.97 -39.89,-208.7 0,-138.03 49.61,-264.47 131.97,-362.47z"/>
  <path class="fil1" d="M613 1620.5c66.59,166.98 210.71,294.64 387.89,338.5 -177.18,-43.86 -321.3,-171.52 -387.89,-338.5zm932.7 -596.73c-81.74,-86.1 -190.39,-146.42 -312.48,-167.46 195.33,45.09 340.95,220.11 340.95,429.14 0,54.08 -9.74,105.88 -27.58,153.75 -8.79,23.61 -19.55,46.25 -32.08,67.75 -74.9,134.18 -203.05,234.59 -355.85,272.65 -43.76,10.89 -89.54,16.68 -136.68,16.68 -161.01,0 -306.26,-67.51 -408.98,-175.78 -95.87,-101.05 -154.69,-237.6 -154.69,-387.89 0,-60.15 9.42,-118.1 26.87,-172.45 -24.51,70.57 -37.83,146.37 -37.83,225.29 0,333.63 238.04,611.67 553.54,673.55 42.99,8.44 87.41,12.86 132.87,12.86 56.85,0 112.09,-6.92 164.91,-19.94 177.59,-53.15 318.38,-191.48 374.94,-367.57 17.47,-54.38 26.9,-112.36 26.9,-172.55 0,-150.35 -58.87,-286.96 -154.81,-388.03z"/>
  <path class="fil2" d="M1597.71 2068.29c10.13,22.98 -0.15,45.44 2.7,71.7l-494.86 -7.44c6.4,-25.18 -2.05,-54.84 11.42,-76.49l480.74 12.23zm-27.66 158.86c-4.95,26.1 -29.65,36.6 -42.13,59.35l-361.57 -16.26c-26.03,-44.27 -15.12,-34.34 -39.39,-60.8l443.09 17.71z"/>
  <path class="fil3" d="M1534.19 1929.12c17.57,17.94 32.71,38.84 44.61,62.42l-473.25 141.01c-2.88,-25.82 -1.67,-51.69 3.31,-76.7l425.33 -126.73zm67.97 132.66c4.56,26.17 4.84,52.57 1.17,78.25l-436.98 130.21c-14.38,-16.41 -26.86,-34.96 -36.89,-55.51 -1.72,-3.53 -3.33,-7.08 -4.88,-10.65l477.58 -142.3zm-27.48 163.99c-24.07,43.79 -61.42,80.83 -109.73,104.41 -74.95,36.57 -159.2,32.39 -227.65,-3.88l337.38 -100.53z"/>
  <path class="fil4" d="M548.21 927.09c-25.53,41.63 -46.75,86.19 -63.03,133.07 16.28,-46.88 37.5,-91.44 63.03,-133.07zm473.77 -258.15c-198.7,0 -373.39,102.81 -473.77,258.15 100.38,-155.34 275.07,-258.15 473.77,-258.15zm83.15 6.09c-27.13,-4.01 -54.9,-6.09 -83.15,-6.09 28.25,0 56.02,2.08 83.15,6.09zm-532.02 736.77c0,-138.03 49.61,-264.47 131.97,-362.47 -82.36,98 -131.97,224.44 -131.97,362.47zm39.89 208.7c-25.74,-64.55 -39.89,-134.97 -39.89,-208.7 0,73.73 14.15,144.15 39.89,208.7zm65.14 -398.49c0,-60.23 9.45,-118.26 26.94,-172.68 59.23,-184.25 210.71,-327.14 400.05,-374.3 43.76,-10.9 89.54,-16.69 136.68,-16.69 161.97,0 307.98,68.32 410.79,177.7 -125.85,-145.17 -311.62,-236.99 -518.84,-236.99 -247.76,0 -464.86,131.26 -585.55,328.04 -26.49,41 -47.81,85.67 -63.03,133.07 -17.45,54.35 -26.87,112.3 -26.87,172.45 0,150.29 58.82,286.84 154.69,387.89 102.72,108.27 247.97,175.78 408.98,175.78 47.14,0 92.92,-5.79 136.68,-16.68 -271.88,-40.2 -480.52,-274.53 -480.52,-557.59z"/>
  <path class="fil5" d="M1105.13 675.03c43.76,-10.9 89.54,-16.69 136.68,-16.69 161.97,0 307.98,68.32 410.79,177.7 -125.85,-145.17 -311.62,-236.99 -518.84,-236.99 -247.76,0 -464.86,131.26 -585.55,328.04 100.38,-155.34 275.07,-258.15 473.77,-258.15 28.25,0 56.02,2.08 83.15,6.09z"/>
 </g>
</svg>
